<svg width="32" height="32" viewBox="0 0 32 32" fill="none" xmlns="http://www.w3.org/2000/svg">
<path d="M20.2499 20.25C22.5971 20.25 24.4999 18.3472 24.4999 16C24.4999 13.6528 22.5971 11.75 20.2499 11.75C17.9027 11.75 15.9999 13.6528 15.9999 16C15.9999 18.3472 17.9027 20.25 20.2499 20.25Z" stroke="black" stroke-width="1.5" stroke-linecap="round" stroke-linejoin="round"/>
<path d="M15.9999 11.75V3.25H11.7499C10.6228 3.25 9.54176 3.69777 8.74473 4.4948C7.94771 5.29183 7.49994 6.37283 7.49994 7.5C7.49994 8.62717 7.94771 9.70817 8.74473 10.5052C9.54176 11.3022 10.6228 11.75 11.7499 11.75H15.9999Z" stroke="black" stroke-width="1.5" stroke-linecap="round" stroke-linejoin="round"/>
<path d="M15.9999 20.25V11.75H11.7499C10.6228 11.75 9.54176 12.1978 8.74473 12.9948C7.94771 13.7918 7.49994 14.8728 7.49994 16C7.49994 17.1272 7.94771 18.2082 8.74473 19.0052C9.54176 19.8022 10.6228 20.25 11.7499 20.25H15.9999Z" stroke="black" stroke-width="1.5" stroke-linecap="round" stroke-linejoin="round"/>
<path d="M15.9999 11.75V3.25H20.2499C21.3771 3.25 22.4581 3.69777 23.2551 4.4948C24.0522 5.29183 24.4999 6.37283 24.4999 7.5C24.4999 8.62717 24.0522 9.70817 23.2551 10.5052C22.4581 11.3022 21.3771 11.75 20.2499 11.75H15.9999Z" stroke="black" stroke-width="1.5" stroke-linecap="round" stroke-linejoin="round"/>
<path d="M15.9999 20.25V24.5C15.9999 25.3406 15.7507 26.1623 15.2837 26.8612C14.8167 27.5601 14.1529 28.1048 13.3763 28.4265C12.5998 28.7482 11.7452 28.8323 10.9208 28.6683C10.0964 28.5043 9.33911 28.0996 8.74474 27.5052C8.15036 26.9108 7.74559 26.1536 7.5816 25.3291C7.41762 24.5047 7.50178 23.6502 7.82345 22.8736C8.14513 22.097 8.68986 21.4332 9.38877 20.9663C10.0877 20.4993 10.9094 20.25 11.7499 20.25H15.9999Z" stroke="black" stroke-width="1.5" stroke-linecap="round" stroke-linejoin="round"/>
</svg>
