<svg width="24" height="24" viewBox="0 0 24 24" fill="none" xmlns="http://www.w3.org/2000/svg">
<path d="M12 15C14.0711 15 15.75 13.3211 15.75 11.25C15.75 9.17893 14.0711 7.5 12 7.5C9.92893 7.5 8.25 9.17893 8.25 11.25C8.25 13.3211 9.92893 15 12 15Z" stroke="#867A7A" stroke-width="1.5" stroke-linecap="round" stroke-linejoin="round"/>
<path d="M19.5 3.75H4.5C4.08579 3.75 3.75 4.08579 3.75 4.5V19.5C3.75 19.9142 4.08579 20.25 4.5 20.25H19.5C19.9142 20.25 20.25 19.9142 20.25 19.5V4.5C20.25 4.08579 19.9142 3.75 19.5 3.75Z" stroke="#867A7A" stroke-width="1.5" stroke-linecap="round" stroke-linejoin="round"/>
<path d="M5.41876 20.25C5.75863 18.7587 6.59492 17.427 7.7906 16.4732C8.98629 15.5194 10.4705 14.9999 12 14.9999C13.5295 14.9999 15.0137 15.5194 16.2094 16.4732C17.4051 17.427 18.2414 18.7587 18.5813 20.25" stroke="#867A7A" stroke-width="1.5" stroke-linecap="round" stroke-linejoin="round"/>
</svg>
